<?xml version="1.0" encoding="utf-8"?><svg version="1.1" id="Layer_1" xmlns="http://www.w3.org/2000/svg" xmlns:xlink="http://www.w3.org/1999/xlink" x="0px" y="0px" viewBox="0 0 114.53 122.88" style="enable-background:new 0 0 114.53 122.88" xml:space="preserve"><style type="text/css">.st0{fill:#FB8F2D;} .st1{fill:#FFE278;} .st2{fill:#FF9F34;} .st3{fill:#D83636;} .st4{fill:#F2433B;} .st5{fill:#75AA00;} .st6{fill:#FFFFFF;}</style><g><path class="st0" d="M53.62,68.6l31.59-17.3l0.03-0.01l8.25-4.51c0.78-0.43,1.76-0.14,2.19,0.65c3.25,5.93,5.25,12.38,5.96,18.97 c0.71,6.54,0.15,13.22-1.71,19.67c-0.02,0.1-0.05,0.19-0.08,0.29c-3.98,13.44-13,24.01-24.41,30.25 c-11.4,6.24-25.17,8.15-38.62,4.25c-0.1-0.02-0.2-0.05-0.29-0.09c-13.44-3.98-24.01-13-30.25-24.41 C0.01,84.91-1.89,71.09,2.06,57.58v-0.01c3.95-13.51,13.01-24.13,24.45-30.39c11.44-6.26,25.27-8.16,38.77-4.21 c0.86,0.25,1.35,1.14,1.1,2l0,0L53.62,68.6L53.62,68.6L53.62,68.6z"/><path d="M80.48,69.18c-0.84-0.83-1.99-1.35-3.26-1.35c-1.27,0-2.43,0.52-3.26,1.35c-0.84,0.84-1.35,1.99-1.35,3.26 c0,1.27,0.52,2.43,1.35,3.26c0.83,0.84,1.99,1.35,3.26,1.35c1.27,0,2.43-0.52,3.26-1.35c0.84-0.83,1.35-1.99,1.35-3.26 C81.82,71.17,81.31,70.02,80.48,69.18L80.48,69.18L80.48,69.18z"/><path class="st1" d="M87.83,53.68L51.82,73.4c-0.2,0.11-0.43,0.18-0.65,0.21h-0.02l0,0h-0.02l0,0H51.1l0,0h-0.02l0,0h-0.02l0,0 h-0.02l0,0h-0.02l0,0h-0.02l0,0h-0.02l0,0h-0.02l0,0h-0.02l0,0h-0.02l0,0h-0.02l0,0h-0.02l0,0h-0.02l0,0h-0.02l0,0H50.8 c-0.1-0.01-0.2-0.03-0.3-0.06c-0.92-0.27-1.45-1.22-1.18-2.15l11.54-39.42C50.5,29.41,40,31.03,31.25,35.83 c-9.23,5.05-16.53,13.62-19.71,24.51c-3.19,10.9-1.65,22.05,3.39,31.29c5.05,9.23,13.62,16.53,24.51,19.71 c10.9,3.19,22.06,1.65,31.29-3.39c9.23-5.05,16.53-13.62,19.71-24.51c1.53-5.23,1.99-10.67,1.42-15.99 C91.33,62.69,89.98,58.03,87.83,53.68L87.83,53.68L87.83,53.68z"/><path class="st2" d="M88.15,53.37c2.21,4.43,3.59,9.19,4.11,14.03c0.58,5.37,0.12,10.85-1.43,16.14 c-3.22,11.01-10.6,19.68-19.93,24.78c-9.32,5.1-20.59,6.65-31.59,3.43c-11.01-3.22-19.68-10.6-24.78-19.93 c-5.1-9.32-6.65-20.59-3.43-31.59c3.22-11.01,10.6-19.68,19.93-24.78c8.89-4.86,19.54-6.5,30.04-3.85l1.74-5.96 C50.66,22.52,38.33,24.39,28.06,30c-10.72,5.88-19.2,15.83-22.9,28.47l0,0C1.46,71.13,3.24,84.08,9.11,94.8 c5.87,10.71,15.82,19.19,28.46,22.89l0,0c12.66,3.7,25.6,1.92,36.32-3.94c10.71-5.86,19.19-15.82,22.89-28.46l0,0 c1.78-6.07,2.31-12.38,1.64-18.56c-0.61-5.65-2.23-11.19-4.83-16.34L88.15,53.37L88.15,53.37L88.15,53.37z"/><path class="st0" d="M83.93,0.06C90.56,2,96.49,5.17,101.55,9.24c5.26,4.23,9.58,9.44,12.78,15.27c0.43,0.78,0.14,1.76-0.65,2.19 L70.4,50.39c-0.78,0.43-1.76,0.14-2.19-0.65c-0.21-0.39-0.25-0.83-0.13-1.22l0,0L81.94,1.17C82.17,0.31,83.07-0.18,83.93,0.06 L83.93,0.06L83.93,0.06z"/><path class="st1" d="M104.98,28.42c-2.87-4.17-6.35-7.93-10.39-11.12c-3.77-2.98-8.01-5.47-12.65-7.34L71.11,46.95L104.98,28.42 L104.98,28.42L104.98,28.42z"/><path class="st2" d="M83.26,8.11c4.73,1.87,9.05,4.39,12.88,7.42c4.1,3.24,7.63,7.08,10.52,11.33l4.04-2.21 c-2.9-4.89-6.67-9.28-11.17-12.9c-4.35-3.5-9.38-6.28-14.96-8.12L83.26,8.11L83.26,8.11L83.26,8.11z"/><path class="st3" d="M77.21,64.92c2.08,0,3.96,0.84,5.32,2.2c1.36,1.36,2.2,3.24,2.2,5.32c0,2.08-0.84,3.96-2.2,5.32 c-1.36,1.36-3.24,2.2-5.32,2.2c-2.08,0-3.96-0.84-5.32-2.2c-1.36-1.36-2.2-3.24-2.2-5.32c0-2.08,0.84-3.96,2.2-5.32 C73.25,65.77,75.14,64.92,77.21,64.92L77.21,64.92L77.21,64.92z"/><path class="st3" d="M26.79,70.38c3.35,0,6.07,2.72,6.07,6.07c0,3.35-2.72,6.07-6.07,6.07c-3.35,0-6.07-2.72-6.07-6.07 C20.72,73.1,23.44,70.38,26.79,70.38L26.79,70.38L26.79,70.38z"/><polygon class="st4" points="32.98,50.34 40.7,39.2 48.75,50.67 32.98,50.34 32.98,50.34"/><path class="st5" d="M39.56,101.18c-0.79,0.14-1.54-0.38-1.68-1.17c-0.14-0.79,0.38-1.54,1.17-1.68c1.51-0.27,2.81-0.37,4.03-0.09 c1.32,0.3,2.46,1.01,3.51,2.33c0.04,0.05,0.08,0.09,0.12,0.13c0.34,0.32,0.9,0.35,1.49,0.22c0.8-0.17,1.6-0.61,2.2-1.08 c0.17-0.13,0.32-0.27,0.43-0.39c2.13-2.24,4.84-0.96,7.1,0.12c0.75,0.36,1,1.52,1.2,1.09c0.01-0.03,0.03-0.06,0.04-0.09 c0.22-0.67,0.9-1.1,1.61-0.98c0.79,0.13,1.33,0.87,1.2,1.67c-0.08,0.52-0.2,0.76-0.38,0.93c-1.05,1.86-2.83,1.01-4.91,0.02 c-1.4-0.67-3.08-1.46-3.76-0.74c-0.21,0.23-0.46,0.45-0.73,0.66c-0.9,0.71-2.14,1.38-3.39,1.65c-1.46,0.32-2.95,0.14-4.11-0.96 c-0.14-0.13-0.27-0.27-0.39-0.43c-0.6-0.76-1.21-1.15-1.89-1.31C41.66,100.89,40.71,100.97,39.56,101.18L39.56,101.18L39.56,101.18 z M41.72,77.56c-0.08-0.8,0.49-1.51,1.29-1.6c0.8-0.08,1.51,0.49,1.6,1.29c0.3,2.75,0.01,5.18-0.86,7.27 c-0.89,2.14-2.37,3.9-4.45,5.27c-0.67,0.44-1.57,0.26-2.01-0.41c-0.44-0.67-0.26-1.57,0.41-2.01c1.58-1.05,2.71-2.37,3.37-3.97 C41.74,81.76,41.96,79.81,41.72,77.56L41.72,77.56L41.72,77.56z M30.07,62.89c-0.79,0.14-1.54-0.38-1.69-1.16 c-0.14-0.79,0.38-1.54,1.17-1.69c0.84-0.16,1.68-0.43,2.46-0.69c2.6-0.86,4.68-1.54,7.04,1c0.64,0.69,1.67,0.72,2.82,0.74 c0.87,0.02,1.8,0.04,2.79,0.26c0.78,0.17,1.28,0.94,1.11,1.73c-0.17,0.78-0.94,1.28-1.73,1.11c-0.76-0.17-1.52-0.18-2.23-0.2 c-1.81-0.04-3.42-0.08-4.89-1.66c-1.09-1.18-2.38-0.75-4-0.22C32.08,62.39,31.16,62.69,30.07,62.89L30.07,62.89L30.07,62.89z"/><polygon class="st4" points="56.17,92.6 64.26,82.9 71.34,92.7 56.17,92.6 56.17,92.6"/><path class="st3" d="M88.36,18.5c3.35,0,6.07,2.72,6.07,6.07c0,3.35-2.72,6.07-6.07,6.07c-3.35,0-6.07-2.72-6.07-6.07 C82.29,21.22,85.01,18.5,88.36,18.5L88.36,18.5L88.36,18.5z"/><path class="st6" d="M77.21,70.3c0.59,0,1.12,0.24,1.51,0.62c0.39,0.39,0.62,0.92,0.62,1.51c0,0.59-0.24,1.12-0.62,1.51 c-0.39,0.39-0.92,0.62-1.51,0.62c-0.59,0-1.12-0.24-1.51-0.62c-0.39-0.39-0.62-0.92-0.62-1.51c0-0.59,0.24-1.12,0.62-1.51 C76.08,70.54,76.62,70.3,77.21,70.3L77.21,70.3L77.21,70.3z"/><path class="st6" d="M26.79,74.31c0.59,0,1.12,0.24,1.51,0.62c0.39,0.39,0.62,0.92,0.62,1.51c0,0.59-0.24,1.12-0.62,1.51 c-0.39,0.39-0.92,0.62-1.51,0.62c-0.59,0-1.12-0.24-1.51-0.62c-0.39-0.39-0.62-0.92-0.62-1.51c0-0.59,0.24-1.12,0.62-1.51 C25.66,74.55,26.2,74.31,26.79,74.31L26.79,74.31L26.79,74.31z"/></g></svg>